<svg width="42" height="42" viewBox="0 0 42 42" fill="none" xmlns="http://www.w3.org/2000/svg">
<circle cx="21" cy="21" r="20.5" stroke="white"/>
<path d="M24.9141 18.4922H28.4766C28.0078 15.1523 25.0664 12.7969 21.2344 12.7969C16.7578 12.7969 13.3125 16.0312 13.3125 21.5391C13.3125 26.9062 16.5469 30.2344 21.3047 30.2344C25.582 30.2344 28.6406 27.5156 28.6406 23.0625V20.9531H21.5625V23.6016H25.2422C25.1953 25.7344 23.7539 27.1055 21.3281 27.1172C18.6211 27.1055 16.8984 25.0781 16.8984 21.4922C16.8984 17.9297 18.6797 15.9258 21.3047 15.9141C23.1562 15.9258 24.4336 16.8984 24.9141 18.4922Z" fill="white"/>
</svg>
