<svg width="18" height="14" viewBox="0 0 18 14" fill="none" xmlns="http://www.w3.org/2000/svg">
<path d="M9.00027 10.7507C7.02501 10.7507 5.42605 9.22181 5.27891 7.28431L2.54714 5.17312C2.18803 5.62364 1.85756 6.09994 1.59089 6.62077C1.53132 6.73861 1.50028 6.86881 1.50028 7.00085C1.50028 7.13289 1.53132 7.26309 1.59089 7.38093C3.00313 10.1364 5.79897 12.0007 9.00027 12.0007C9.70105 12.0007 10.3771 11.8966 11.0287 11.7283L9.67735 10.6828C9.45418 10.7259 9.22756 10.7486 9.00027 10.7507ZM17.1727 12.2637L14.2938 10.0387C15.1683 9.30174 15.8875 8.39819 16.4096 7.38067C16.4692 7.26283 16.5003 7.13263 16.5003 7.00059C16.5003 6.86855 16.4692 6.73835 16.4096 6.62051C14.9974 3.86504 12.2016 2.00072 9.00027 2.00072C7.65951 2.00234 6.34053 2.33988 5.16381 2.98249L1.85079 0.421813C1.80759 0.388195 1.75818 0.36342 1.7054 0.348903C1.65262 0.334386 1.5975 0.330412 1.54318 0.337208C1.48886 0.344003 1.43642 0.361436 1.38884 0.388509C1.34126 0.415582 1.29948 0.451765 1.26589 0.49499L0.754696 1.15306C0.686883 1.2403 0.656497 1.3509 0.67022 1.46053C0.683943 1.57017 0.740651 1.66987 0.827873 1.7377L16.1497 13.5796C16.193 13.6132 16.2424 13.638 16.2951 13.6525C16.3479 13.6671 16.403 13.671 16.4574 13.6642C16.5117 13.6574 16.5641 13.64 16.6117 13.6129C16.6593 13.5859 16.7011 13.5497 16.7346 13.5064L17.2461 12.8484C17.3139 12.7611 17.3442 12.6505 17.3305 12.5408C17.3167 12.4312 17.2599 12.3315 17.1727 12.2637ZM12.3883 8.56582L11.3649 7.77468C11.451 7.52558 11.4968 7.26428 11.5003 7.00072C11.5054 6.61485 11.4199 6.23317 11.2507 5.88633C11.0815 5.53949 10.8333 5.23717 10.5261 5.00364C10.2189 4.77011 9.86116 4.61189 9.48169 4.54169C9.10223 4.47149 8.71159 4.49126 8.34115 4.59942C8.49819 4.8122 8.58313 5.0696 8.5836 5.33405C8.57972 5.42206 8.56627 5.50937 8.5435 5.59447L6.62657 4.11296C7.29245 3.5565 8.13249 3.25136 9.00027 3.25072C9.4928 3.25045 9.98056 3.34725 10.4357 3.53561C10.8908 3.72397 11.3043 4.00018 11.6525 4.34846C12.0008 4.69673 12.277 5.11024 12.4654 5.56533C12.6537 6.02043 12.7505 6.50819 12.7503 7.00072C12.7503 7.564 12.6125 8.089 12.3883 8.56608V8.56582Z" fill="#9FA2B4"/>
</svg>
